<svg xmlns="http://www.w3.org/2000/svg" width="132" height="134" viewBox="0 0 132 134" fill="none">
    <g clip-path="url(#clip0_403_92)">
        <path d="M33.2976 128.031C33.1519 128.037 33.0077 127.999 32.8845 127.921C32.7613 127.842 32.6651 127.728 32.6088 127.593C32.5526 127.458 32.5391 127.309 32.5701 127.166C32.6011 127.023 32.6751 126.893 32.7822 126.794C32.8001 126.723 32.813 126.671 32.8309 126.6C32.6915 126.244 32.4496 125.939 32.1361 125.723C31.8225 125.506 31.4518 125.389 31.0712 125.385C30.6907 125.382 30.3178 125.492 30.0003 125.702C29.6827 125.913 29.4351 126.214 29.289 126.566C28.4463 128.545 27.3555 130.594 27.898 132.774C24.3149 125.155 25.5334 115.678 30.8287 109.163C32.2923 108.354 33.4787 106.917 33.7875 105.248C33.0631 105.494 32.16 104.903 32.7046 104.137C32.9407 103.845 33.1791 103.555 33.4151 103.262C30.6635 100.322 27.3849 104.943 30.4137 108.911C29.4229 110.157 28.5646 111.504 27.853 112.929C28.0173 111.416 27.8212 109.885 27.2807 108.462C26.7329 107.136 25.7061 106.02 24.8019 104.873C23.7025 103.477 21.4399 104.121 21.2919 105.894C22.3065 106.228 22.4383 107.698 21.2778 107.9C21.5817 111.197 23.7287 114.227 26.6856 115.673C25.5937 118.747 25.1673 122.019 25.4349 125.271C24.9129 121.47 20.8462 120.548 18.0038 119.037C17.8229 118.921 17.6121 118.86 17.3972 118.861C17.1823 118.863 16.9725 118.928 16.7935 119.047C16.6145 119.166 16.4739 119.335 16.389 119.533C16.304 119.731 16.2784 119.95 16.3152 120.162C16.7075 120.322 17.083 120.521 17.4361 120.756C17.6016 120.867 17.7286 121.027 17.7998 121.214C17.8709 121.401 17.8827 121.606 17.8335 121.8C17.7844 121.993 17.6766 122.167 17.5251 122.297C17.3735 122.427 17.1856 122.507 16.9871 122.526C18.4199 126.084 22.1242 128.473 25.9287 128.459C26.2943 130.053 26.8241 131.605 27.5094 133.089H33.1561C33.1763 133.026 33.1945 132.961 33.2127 132.898C32.6901 132.931 32.1653 132.9 31.6503 132.805C33.0331 131.162 34.1025 130.324 33.2977 128.031L33.2976 128.031Z" fill="#3F7742"/>
        <path d="M83.6389 128.031C83.7845 128.037 83.9287 127.999 84.0519 127.921C84.1751 127.842 84.2714 127.728 84.3276 127.593C84.3839 127.458 84.3974 127.309 84.3664 127.166C84.3354 127.023 84.2613 126.893 84.1543 126.794C84.1363 126.723 84.1235 126.671 84.1055 126.6C84.2449 126.244 84.4869 125.939 84.8004 125.723C85.1139 125.506 85.4847 125.389 85.8652 125.385C86.2457 125.382 86.6187 125.492 86.9362 125.702C87.2537 125.913 87.5014 126.214 87.6474 126.566C88.4902 128.545 89.5809 130.594 89.0385 132.774C92.6215 125.155 91.403 115.678 86.1078 109.163C84.6441 108.354 83.4578 106.917 83.1489 105.248C83.8733 105.494 84.7765 104.903 84.2318 104.137C83.9957 103.845 83.7574 103.555 83.5213 103.262C86.273 100.322 89.5516 104.943 86.5228 108.911C87.5136 110.157 88.3718 111.504 89.0835 112.929C88.9191 111.416 89.1153 109.885 89.6558 108.462C90.2036 107.136 91.2303 106.02 92.1345 104.873C93.2339 103.477 95.4966 104.121 95.6445 105.894C94.6299 106.228 94.4981 107.698 95.6587 107.9C95.3547 111.197 93.2078 114.227 90.2508 115.673C91.3428 118.747 91.7692 122.019 91.5016 125.271C92.0235 121.47 96.0902 120.548 98.9327 119.037C99.1136 118.921 99.3244 118.86 99.5393 118.861C99.7542 118.863 99.9639 118.928 100.143 119.047C100.322 119.166 100.463 119.335 100.547 119.533C100.632 119.731 100.658 119.95 100.621 120.162C100.229 120.322 99.8535 120.521 99.5003 120.756C99.3348 120.867 99.2078 121.027 99.1367 121.214C99.0655 121.401 99.0537 121.606 99.1029 121.8C99.1521 121.993 99.2598 122.167 99.4114 122.297C99.5629 122.427 99.7508 122.507 99.9494 122.526C98.5166 126.084 94.8123 128.473 91.0077 128.459C90.6421 130.053 90.1124 131.605 89.4271 133.089H83.7804C83.7601 133.026 83.7419 132.961 83.7237 132.898C84.2464 132.931 84.7711 132.9 85.2862 132.805C83.9034 131.162 82.8341 130.324 83.6389 128.031Z" fill="#3F7742"/>
        <path d="M85.7326 128.872L83.3009 129.427L80.0095 120.28L83.5987 119.461L85.7326 128.872Z" fill="#FFB6B6"/>
        <path d="M86.3957 131.397L78.9177 133.104L78.8962 133.01C78.7205 132.235 78.8588 131.422 79.2804 130.75C79.702 130.078 80.3725 129.601 81.1444 129.425L82.2747 128.073L85.0592 128.531L85.7119 128.382L86.3957 131.397Z" fill="#2F2E41"/>
        <path d="M124.961 84.2888L126.298 86.4009L118.814 92.58L116.841 89.4624L124.961 84.2888Z" fill="#FFB6B6"/>
        <path d="M127.11 82.8149L131.221 89.3103L131.14 89.3624C130.471 89.7882 129.662 89.9302 128.889 89.7572C128.116 89.5842 127.444 89.1104 127.019 88.4399L125.371 87.825L124.867 85.0396L124.508 84.4726L127.11 82.8149Z" fill="#2F2E41"/>
        <path d="M47.4448 61.7065L46.8442 58.2138L55.9755 54.0769L57.9475 50.574C57.8838 50.2666 57.906 49.9476 58.0117 49.6521C58.1174 49.3566 58.3025 49.0962 58.5465 48.8996C58.7904 48.703 59.0838 48.5779 59.3942 48.538C59.7046 48.4982 60.0199 48.5453 60.3054 48.674C60.5908 48.8027 60.8352 49.008 61.0116 49.2673C61.188 49.5266 61.2895 49.8298 61.305 50.1434C61.3204 50.4569 61.2492 50.7687 61.0991 51.0442C60.949 51.3197 60.726 51.5482 60.4546 51.7045L57.2107 56.7362L47.4448 61.7065Z" fill="#A0616A"/>
        <path d="M44.6692 58.8513L48.7812 56.7439L49.8698 60.8446L47.0135 62.9688L44.6692 58.8513Z" fill="#92BF92"/>
        <path d="M35.442 128.554L37.9282 128.554L39.111 118.932L35.4414 118.933L35.442 128.554Z" fill="#A0616A"/>
        <path d="M38.7555 128.779V127.088L38.1019 127.128L35.4411 127.286L34.8253 127.324L34.3546 132.987L34.3293 133.291H36.0948L36.1515 132.99L36.4079 131.619L37.07 132.99L37.215 133.291H41.8955C42.174 133.289 42.4406 133.177 42.6373 132.98C42.8341 132.782 42.9451 132.514 42.9463 132.235C43.1439 131.309 39.2515 129.308 38.7555 128.779Z" fill="#2F2E41"/>
        <path d="M5.92847 90.3695L5.34888 92.7954L14.399 96.1928L15.2543 92.6126L5.92847 90.3695Z" fill="#A0616A"/>
        <path d="M5.13487 93.5502L6.77398 93.9445L6.88755 93.2975L7.35465 90.6647L7.46144 90.055L2.08163 88.2751L1.7932 88.1797L1.38157 89.9022L1.6606 90.0278L2.92927 90.5976L1.44645 90.9239L1.12038 90.9951L0.0290769 95.5615C-0.0341487 95.8337 0.0121831 96.1199 0.15802 96.358C0.303858 96.596 0.537419 96.7668 0.807987 96.8331C1.65914 97.2417 4.50623 93.9107 5.13487 93.5502Z" fill="#2F2E41"/>
        <path d="M39.2863 66.283L36.086 64.7821L29.704 72.5309L25.8166 73.5173C25.5378 73.3747 25.2251 73.3123 24.9132 73.3368C24.6012 73.3613 24.3021 73.4718 24.0488 73.6562C23.7955 73.8406 23.598 74.0916 23.4779 74.3815C23.3579 74.6715 23.3201 74.9891 23.3687 75.2992C23.4173 75.6093 23.5504 75.9 23.7533 76.139C23.9562 76.378 24.221 76.5561 24.5185 76.6536C24.8159 76.7511 25.1344 76.7642 25.4388 76.6915C25.7433 76.6188 26.0217 76.4631 26.2435 76.2416L31.9358 74.4266L39.2863 66.283Z" fill="#A0616A"/>
        <path d="M84.6577 37.598C83.9793 37.598 83.3162 37.3961 82.7521 37.018C82.1881 36.6399 81.7485 36.1025 81.4889 35.4737C81.2293 34.8449 81.1613 34.153 81.2937 33.4855C81.426 32.8179 81.7527 32.2048 82.2324 31.7235C82.712 31.2423 83.3232 30.9145 83.9885 30.7818C84.6539 30.649 85.3435 30.7171 85.9702 30.9776C86.5969 31.238 87.1326 31.6791 87.5095 32.245C87.8864 32.8109 88.0875 33.4762 88.0875 34.1568C88.0865 35.0691 87.7248 35.9438 87.0818 36.5889C86.4388 37.2341 85.567 37.5969 84.6577 37.598ZM84.6577 31.1105C84.0571 31.1105 83.4701 31.2892 82.9708 31.6239C82.4715 31.9587 82.0823 32.4344 81.8525 32.991C81.6227 33.5477 81.5626 34.1602 81.6797 34.7511C81.7969 35.342 82.0861 35.8848 82.5107 36.3108C82.9353 36.7369 83.4763 37.027 84.0653 37.1445C84.6543 37.2621 85.2648 37.2017 85.8196 36.9712C86.3744 36.7406 86.8486 36.3502 87.1822 35.8492C87.5158 35.3483 87.6939 34.7593 87.6939 34.1568C87.693 33.3492 87.3728 32.5749 86.8036 32.0038C86.2344 31.4327 85.4626 31.1115 84.6577 31.1105Z" fill="#3F7742"/>
        <path d="M84.4155 35.4532C84.4086 35.4532 84.4017 35.453 84.3948 35.4526C84.3339 35.4497 84.2744 35.4335 84.2203 35.4053C84.1662 35.3771 84.1188 35.3375 84.0814 35.2892L83.5411 34.5923C83.507 34.5483 83.4818 34.498 83.4671 34.4443C83.4523 34.3906 83.4483 34.3344 83.4552 34.2791C83.462 34.2238 83.4797 34.1704 83.5072 34.1219C83.5346 34.0735 83.5714 34.0309 83.6152 33.9967L83.6347 33.9815C83.6785 33.9473 83.7286 33.922 83.7822 33.9072C83.8358 33.8924 83.8918 33.8884 83.9469 33.8953C84.0021 33.9022 84.0553 33.92 84.1036 33.9475C84.1519 33.9751 84.1943 34.012 84.2284 34.056C84.2557 34.0911 84.2902 34.12 84.3297 34.1405C84.3691 34.161 84.4125 34.1728 84.4568 34.1749C84.5012 34.1771 84.5455 34.1696 84.5867 34.1531C84.6279 34.1365 84.6651 34.1111 84.6956 34.0788L85.7927 32.9168C85.8699 32.8352 85.9762 32.7877 86.0883 32.7846C86.2005 32.7816 86.3092 32.8233 86.3907 32.9005L86.4087 32.9177C86.4491 32.9561 86.4815 33.002 86.5041 33.0529C86.5268 33.1038 86.5392 33.1587 86.5407 33.2144C86.5422 33.2701 86.5327 33.3256 86.5129 33.3776C86.493 33.4297 86.4631 33.4773 86.4249 33.5177L84.7224 35.3206C84.6829 35.3625 84.6353 35.3958 84.5826 35.4186C84.5298 35.4414 84.4729 35.4532 84.4155 35.4532Z" fill="#3F7742"/>
        <path d="M67.5356 79.2606C66.8572 79.2606 66.1941 79.0587 65.6301 78.6806C65.066 78.3025 64.6264 77.7651 64.3668 77.1363C64.1072 76.5075 64.0393 75.8156 64.1716 75.1481C64.304 74.4805 64.6306 73.8674 65.1103 73.3861C65.59 72.9049 66.2011 72.5771 66.8665 72.4444C67.5318 72.3116 68.2214 72.3797 68.8481 72.6402C69.4749 72.9006 70.0105 73.3417 70.3874 73.9076C70.7643 74.4735 70.9655 75.1388 70.9655 75.8194C70.9644 76.7317 70.6028 77.6064 69.9598 78.2515C69.3167 78.8967 68.4449 79.2595 67.5356 79.2606ZM67.5356 72.7731C66.9351 72.7731 66.348 72.9518 65.8487 73.2865C65.3494 73.6213 64.9603 74.097 64.7304 74.6536C64.5006 75.2103 64.4405 75.8228 64.5577 76.4137C64.6748 77.0046 64.964 77.5474 65.3886 77.9734C65.8133 78.3995 66.3543 78.6896 66.9432 78.8071C67.5322 78.9247 68.1427 78.8643 68.6975 78.6338C69.2523 78.4032 69.7265 78.0128 70.0601 77.5118C70.3938 77.0109 70.5719 76.4219 70.5718 75.8194C70.5709 75.0118 70.2508 74.2375 69.6815 73.6664C69.1123 73.0953 68.3406 72.7741 67.5356 72.7731Z" fill="#3F7742"/>
        <path d="M67.2934 77.1158C67.2865 77.1158 67.2796 77.1155 67.2727 77.1152C67.2118 77.1123 67.1523 77.0961 67.0982 77.0679C67.0441 77.0397 66.9967 77.0001 66.9593 76.9518L66.419 76.2549C66.3849 76.2109 66.3597 76.1606 66.345 76.1069C66.3303 76.0532 66.3262 75.997 66.3331 75.9417C66.34 75.8864 66.3577 75.833 66.3851 75.7845C66.4126 75.7361 66.4493 75.6935 66.4931 75.6593L66.5126 75.6441C66.5564 75.6099 66.6066 75.5846 66.6602 75.5698C66.7137 75.555 66.7697 75.551 66.8248 75.5579C66.88 75.5648 66.9332 75.5826 66.9815 75.6101C67.0298 75.6377 67.0722 75.6746 67.1063 75.7186C67.1336 75.7537 67.1682 75.7826 67.2076 75.8031C67.247 75.8236 67.2904 75.8354 67.3347 75.8375C67.3791 75.8397 67.4234 75.8322 67.4646 75.8157C67.5058 75.7991 67.543 75.7737 67.5736 75.7414L68.6706 74.5794C68.7478 74.4978 68.8542 74.4503 68.9663 74.4472C69.0784 74.4442 69.1871 74.4859 69.2687 74.5631L69.2867 74.5803C69.327 74.6187 69.3594 74.6646 69.3821 74.7155C69.4047 74.7664 69.4171 74.8213 69.4186 74.877C69.4201 74.9327 69.4107 74.9882 69.3908 75.0402C69.3709 75.0923 69.341 75.1399 69.3028 75.1803L67.6004 76.9832C67.5609 77.0251 67.5133 77.0584 67.4605 77.0812C67.4077 77.104 67.3509 77.1158 67.2934 77.1158Z" fill="#3F7742"/>
        <path d="M29.9457 32.8591C29.2674 32.8591 28.6043 32.6573 28.0402 32.2791C27.4762 31.901 27.0366 31.3636 26.777 30.7348C26.5174 30.106 26.4494 29.4141 26.5818 28.7466C26.7141 28.0791 27.0408 27.4659 27.5205 26.9846C28.0001 26.5034 28.6113 26.1756 29.2766 26.0429C29.9419 25.9101 30.6316 25.9782 31.2583 26.2387C31.885 26.4991 32.4207 26.9402 32.7976 27.5061C33.1745 28.072 33.3756 28.7373 33.3756 29.4179C33.3746 30.3302 33.0129 31.2049 32.3699 31.8501C31.7269 32.4952 30.8551 32.8581 29.9457 32.8591ZM29.9457 26.3717C29.3452 26.3717 28.7582 26.5503 28.2589 26.885C27.7596 27.2198 27.3704 27.6955 27.1406 28.2522C26.9108 28.8088 26.8507 29.4213 26.9678 30.0122C27.085 30.6031 27.3742 31.1459 27.7988 31.5719C28.2234 31.998 28.7644 32.2881 29.3534 32.4056C29.9424 32.5232 30.5529 32.4628 31.1077 32.2323C31.6625 32.0017 32.1367 31.6113 32.4703 31.1103C32.8039 30.6094 32.982 30.0204 32.982 29.4179C32.9811 28.6103 32.6609 27.836 32.0917 27.2649C31.5225 26.6938 30.7507 26.3726 29.9457 26.3717Z" fill="#3F7742"/>
        <path d="M29.7035 30.7143C29.6967 30.7143 29.6898 30.7141 29.6829 30.7137C29.622 30.7108 29.5624 30.6946 29.5083 30.6664C29.4543 30.6382 29.4069 30.5986 29.3695 30.5503L28.8292 29.8534C28.795 29.8094 28.7699 29.7591 28.7551 29.7054C28.7404 29.6517 28.7364 29.5955 28.7433 29.5402C28.7501 29.4849 28.7678 29.4315 28.7953 29.3831C28.8227 29.3346 28.8594 29.292 28.9033 29.2578L28.9227 29.2426C28.9666 29.2084 29.0167 29.1831 29.0703 29.1684C29.1239 29.1536 29.1799 29.1495 29.235 29.1564C29.2901 29.1633 29.3434 29.1811 29.3917 29.2086C29.44 29.2362 29.4824 29.2731 29.5165 29.3171C29.5438 29.3522 29.5783 29.3811 29.6177 29.4016C29.6572 29.4221 29.7005 29.4339 29.7449 29.4361C29.7893 29.4382 29.8336 29.4308 29.8748 29.4142C29.916 29.3976 29.9532 29.3722 29.9837 29.3399L31.0808 28.178C31.158 28.0963 31.2643 28.0488 31.3764 28.0458C31.4885 28.0427 31.5973 28.0844 31.6788 28.1616L31.6968 28.1789C31.7372 28.2172 31.7696 28.2631 31.7922 28.314C31.8149 28.3649 31.8273 28.4198 31.8288 28.4755C31.8303 28.5312 31.8208 28.5867 31.801 28.6387C31.7811 28.6908 31.7512 28.7384 31.713 28.7788L30.0105 30.5817C29.971 30.6236 29.9234 30.6569 29.8707 30.6797C29.8179 30.7025 29.761 30.7143 29.7035 30.7143Z" fill="#3F7742"/>
        <path d="M57.4053 92.0551C49.4518 92.0551 40.3113 83.2001 32.2242 87.4074C7.73863 100.146 11.1092 78.83 4.07471 70.9025L4.30565 70.4377C12.0674 77.4203 21.7582 83.1014 32.3305 86.8668C41.8846 90.2698 51.5102 91.8465 60.1634 91.4304L60.1784 91.9891C59.2646 92.0333 58.3402 92.0553 57.4053 92.0551Z" fill="#3F7742"/>
        <path d="M46.495 32.1854C47.4132 32.1854 48.1575 31.1841 48.1575 29.9488C48.1575 28.7135 47.4132 27.7122 46.495 27.7122C45.5768 27.7122 44.8325 28.7135 44.8325 29.9488C44.8325 31.1841 45.5768 32.1854 46.495 32.1854Z" fill="#3F7742"/>
        <path d="M65.6969 67.0774C64.9369 67.5855 64.1589 66.3762 64.9336 65.8907C65.6936 65.3827 66.4715 66.592 65.6969 67.0774Z" fill="#3F7742"/>
        <path d="M61.3218 26.3659C62.5175 26.3659 63.4867 25.3935 63.4867 24.1939C63.4867 22.9943 62.5175 22.0219 61.3218 22.0219C60.1262 22.0219 59.157 22.9943 59.157 24.1939C59.157 25.3935 60.1262 26.3659 61.3218 26.3659Z" fill="#FF6584"/>
        <path opacity="0.3" d="M68.8939 36.0962L81.2126 0L67.6859 35.6641C67.619 35.7488 67.5732 35.8482 67.5522 35.9542C67.5313 36.0601 67.5358 36.1696 67.5655 36.2734C67.5951 36.3773 67.649 36.4726 67.7227 36.5513C67.7964 36.6301 67.8878 36.6901 67.9892 36.7264C68.0906 36.7627 68.1992 36.7742 68.3059 36.7599C68.4127 36.7457 68.5145 36.7061 68.6029 36.6445C68.6914 36.5829 68.7639 36.501 68.8145 36.4057C68.8651 36.3103 68.8923 36.2042 68.8939 36.0962Z" fill="#F0F0F0"/>
        <path d="M56.4595 80.0719C57.6228 80.0719 58.5658 79.1258 58.5658 77.9587C58.5658 76.7916 57.6228 75.8455 56.4595 75.8455C55.2963 75.8455 54.3533 76.7916 54.3533 77.9587C54.3533 79.1258 55.2963 80.0719 56.4595 80.0719Z" fill="#3F7742"/>
        <path d="M36.0599 78.7648C36.0599 78.7648 30.809 82.1952 32.1974 84.4747C32.2453 84.5533 25.9253 92.9279 25.9253 92.9279L13.9946 92.168L13.5742 96.1744L24.1958 99.2607C24.1958 99.2607 26.7943 101.176 28.8016 99.0658C30.809 96.9555 37.4953 90.4933 37.4953 90.4933L37.8179 103.54L34.4613 121.62L39.473 121.301L44.3509 103.163L46.1514 82.6169L36.0599 78.7648Z" fill="#2F2E41"/>
        <path d="M39.7999 58.1766L37.5919 59.8555L35.0751 65.2447L37.4952 68.5423C37.4952 68.5423 39.5309 72.082 36.2724 75.5099C33.0139 78.9379 30.5118 82.5991 33.1199 82.4684C35.728 82.3376 46.2911 87.7279 46.3606 83.3118C46.4301 78.8957 46.5708 75.5099 46.5708 75.5099L49.3402 68.4626C49.3402 68.4626 50.9901 64.2585 49.8317 63.0001C48.6733 61.7416 47.1222 60.1335 47.1222 60.1335L44.3016 57.3036H41.7548L39.7999 58.1766Z" fill="#92BF92"/>
        <path d="M43.9221 47.8219C48.8758 50.65 44.809 58.112 39.763 55.4548C34.8095 52.6268 38.8762 45.1648 43.9221 47.8219Z" fill="#A0616A"/>
        <path d="M46.571 49.39C46.2239 49.8429 45.4987 49.6305 44.0786 49.9537C44.0817 49.4708 44.0261 48.9892 43.913 48.5198C43.8073 49.101 43.5757 49.6519 43.2346 50.1335C42.0015 50.2707 43.5132 54.0292 42.8818 56.7926C42.0683 50.9628 40.3572 52.4901 41.2216 53.6465C41.775 54.3867 41.4061 56.6075 39.746 55.4971C37.0068 56.8032 33.1055 50.3153 37.4294 47.2725C37.3521 45.6279 39.1761 45.3681 40.2994 45.8737C43.0252 43.8364 46.1395 46.4469 46.571 49.39Z" fill="#2F2E41"/>
        <path d="M33.8607 45.1361C32.7578 51.9392 26.8465 43.8849 24.0671 50.5799C23.1932 53.0044 24.6926 54.7388 25.641 56.7513C25.8574 58.4052 23.7129 59.2443 23.4883 60.7667C23.4258 64.2569 29.0382 64.0433 30.6072 61.8413C32.2194 59.5361 30.2942 56.4434 31.2632 53.9691C32.6252 50.534 38.164 50.5084 38.6465 46.5119C37.712 45.1768 35.1992 43.6476 33.8607 45.1361Z" fill="#2F2E41"/>
        <path d="M38.3284 45.8008C38.2924 45.816 38.2563 45.8313 38.224 45.8484H38.2221C38.1917 45.8637 38.1613 45.8789 38.131 45.896C38.1272 45.898 38.1253 45.8999 38.1215 45.9018C38.0816 45.8637 38.0417 45.8256 37.9999 45.7874C37.9891 45.8495 37.9917 45.9132 38.0075 45.9742L38.0132 45.997C38.0512 46.037 38.0911 46.0751 38.1329 46.1151C38.1708 46.0866 38.2069 46.0561 38.2449 46.0275C38.2677 46.0085 38.2905 45.9894 38.3152 45.9703C38.319 45.9208 38.3247 45.8637 38.3303 45.8008L38.3284 45.8008ZM39.4716 43.6822C38.6247 43.4879 38.3512 44.5986 38.2696 45.134C37.9619 43.1907 36.6821 43.8022 37.1245 45.1282C37.2655 45.5208 37.4875 45.8792 37.7759 46.1799C37.8157 46.2256 37.8594 46.2714 37.905 46.3171C37.8537 46.5838 38.112 46.5152 38.4614 46.2695C38.7194 46.0854 38.958 45.8753 39.1735 45.6426C39.8704 44.9092 40.4135 43.928 39.4716 43.6822ZM39.4982 44.7758C39.2369 45.1138 38.9437 45.4258 38.6228 45.7074C38.5221 45.7989 38.4196 45.8865 38.3152 45.9703C38.3133 45.9875 38.3133 46.0027 38.3114 46.0161C38.304 46.0346 38.2951 46.0524 38.2848 46.0694C38.1784 46.2618 38.0588 46.1571 38.0132 45.997C38.0094 45.9913 38.0037 45.9856 37.9999 45.9799C37.8482 45.8226 37.7162 45.6473 37.6068 45.4579C36.8226 44.0937 38.0854 43.1659 38.0227 45.7131C38.0112 45.7365 38.0035 45.7616 37.9999 45.7874C37.9891 45.8495 37.9917 45.9132 38.0075 45.9742L38.0132 45.997C38.0512 46.037 38.0911 46.0751 38.1329 46.1151C38.1708 46.0866 38.2069 46.0561 38.2449 46.0275C38.2677 46.0085 38.2905 45.9894 38.3152 45.9703C38.319 45.9208 38.3247 45.8637 38.3303 45.8008V45.7989C38.3797 45.2883 38.5146 44.37 38.7633 44.1204C39.3102 43.6994 40.0185 44.1547 39.4982 44.7758ZM38.3284 45.8008C38.2924 45.816 38.2563 45.8313 38.224 45.8484H38.2221C38.1917 45.8637 38.1613 45.8789 38.131 45.896C38.1272 45.898 38.1253 45.8999 38.1215 45.9018C38.0816 45.8637 38.0417 45.8256 37.9999 45.7874C37.9891 45.8495 37.9917 45.9132 38.0075 45.9742L38.0132 45.997C38.0512 46.037 38.0911 46.0751 38.1329 46.1151C38.1708 46.0866 38.2069 46.0561 38.2449 46.0275C38.2677 46.0085 38.2905 45.9894 38.3152 45.9703C38.319 45.9208 38.3247 45.8637 38.3303 45.8008L38.3284 45.8008Z" fill="#2F2E41"/>
        <path d="M84.1141 83.3089L82.2845 88.0959L73.7021 105.081L81.2434 124.839L85.1355 123.809L81.9276 105.081L91.1309 93.8615L102.061 101.299C102.061 101.299 106.908 105.096 108.752 101.496C110.596 97.8972 122.529 90.2416 122.529 90.2416L119.576 87.0823L105.836 93.5338L96.3518 80.1411L84.1141 83.3089Z" fill="#2F2E41"/>
        <path d="M93.3455 60.7293L90.3338 57.483L85.1677 56.77L78.8376 61.216L78.9014 66.1371L82.0306 77.7334C82.0306 77.7334 80.8387 86.0647 84.1679 85.9812C87.4971 85.8976 89.3117 84.2324 90.6677 84.5714C92.0236 84.9103 97.7876 86.353 98.1529 84.8419C98.5182 83.3307 100.46 84.4127 100.375 82.9832C100.289 81.5536 95.1182 71.2492 95.1182 71.2492L96.4039 60.9437L93.3455 60.7293Z" fill="#92BF92"/>
        <path d="M112.414 45.7859C112.441 46.0551 112.409 46.327 112.32 46.5824C112.231 46.8378 112.087 47.0704 111.899 47.264C111.71 47.4576 111.482 47.6074 111.229 47.7028C110.977 47.7982 110.707 47.8369 110.438 47.8163L103.512 61.0311L101.653 58.1673L108.732 45.6954C108.796 45.2445 109.024 44.833 109.37 44.5389C109.717 44.2447 110.159 44.0885 110.613 44.0996C111.067 44.1108 111.501 44.2886 111.833 44.5994C112.165 44.9102 112.372 45.3324 112.414 45.7859Z" fill="#FFB6B6"/>
        <path d="M90.6112 63.1865C90.6112 63.1865 90.3365 65.5371 92.9741 66.119C95.6117 66.701 102.919 62.5117 104.117 61.8719C104.492 61.6715 105.001 60.6895 105.524 59.4349C105.758 58.8716 105.995 58.2535 106.224 57.6265C106.357 57.2636 106.991 57.1646 107.116 56.8048C107.24 56.4469 106.855 55.8282 106.967 55.4909C107.501 53.89 107.879 52.6199 107.879 52.6199L106.13 49.3253C103.686 50.6221 102.432 53.4786 101.509 56.7696L90.6112 63.1865Z" fill="#92BF92"/>
        <path d="M59.8072 48.8207C59.8482 49.0881 59.9473 49.3432 60.0972 49.5681C60.2472 49.793 60.4445 49.9821 60.6752 50.1222C60.9059 50.2623 61.1645 50.35 61.4326 50.379C61.7007 50.408 61.9719 50.3777 62.2271 50.2902L72.2287 61.3456L73.3146 58.1061L63.3499 47.8084C63.175 47.388 62.8524 47.0466 62.4433 46.849C62.0342 46.6513 61.5671 46.611 61.1304 46.7358C60.6937 46.8606 60.3178 47.1417 60.0739 47.526C59.8301 47.9102 59.7352 48.3709 59.8072 48.8207Z" fill="#FFB6B6"/>
        <path d="M85.2568 60.1931C85.2568 60.1931 86.109 62.4 83.7005 63.6257C81.292 64.8513 73.1721 62.6302 71.8527 62.3115C71.4395 62.2117 70.7017 61.3887 69.8831 60.3052C69.5156 59.8187 69.1318 59.2798 68.7538 58.7302C68.535 58.4122 67.8962 58.4755 67.6856 58.1585C67.4761 57.8432 67.6948 57.1474 67.5018 56.8491C66.5859 55.4331 65.9031 54.2984 65.9031 54.2984L66.7738 50.6697C69.4644 51.3114 71.3911 53.7621 73.1049 56.7167L85.2568 60.1931Z" fill="#92BF92"/>
        <path d="M87.8539 55.9441C90.5686 55.9441 92.7693 53.7362 92.7693 51.0125C92.7693 48.2889 90.5686 46.0809 87.8539 46.0809C85.1392 46.0809 82.9385 48.2889 82.9385 51.0125C82.9385 53.7362 85.1392 55.9441 87.8539 55.9441Z" fill="#FFB6B6"/>
        <path d="M93.4647 48.1888C92.9476 47.3863 91.9774 46.8514 91.0367 47.0017C90.9492 46.3994 90.6986 45.8328 90.3123 45.3635C89.926 44.8942 89.4188 44.5403 88.8459 44.3402C88.273 44.1401 87.6563 44.1015 87.0631 44.2287C86.4698 44.3559 85.9227 44.6439 85.4813 45.0614C85.3362 44.9589 85.1671 44.8957 84.9904 44.878C84.8138 44.8602 84.6356 44.8886 84.4731 44.9602C84.1493 45.1079 83.8677 45.3347 83.6539 45.6199C83.1142 46.2952 82.767 47.1047 82.6495 47.9622C82.5319 48.8198 82.6483 49.6933 82.9863 50.4897C82.8713 50.0704 83.2902 49.676 83.7133 49.5819C84.1365 49.4878 84.5803 49.5768 85.0094 49.5155C85.5594 49.437 86.0538 49.1169 86.6047 49.0449C87.0718 49.0144 87.5404 49.0748 87.9846 49.2228C88.4288 49.3707 88.8967 49.4338 89.364 49.4086C89.8277 49.3534 90.4249 51.1162 90.4169 52.3578C90.4153 52.593 90.4637 52.8951 90.6928 52.9451C90.9751 53.0065 91.1386 52.6157 91.4073 52.5092C91.5311 52.4736 91.6638 52.4876 91.7776 52.5483C91.8913 52.609 91.9771 52.7116 92.0169 52.8345C92.0507 52.9594 92.0544 53.0906 92.0275 53.2173C92.0005 53.3439 91.9439 53.4622 91.8622 53.5624C91.697 53.7611 91.501 53.9317 91.2817 54.0677L91.3923 54.16C91.4973 54.2714 91.6377 54.3426 91.7893 54.3615C91.9409 54.3804 92.0944 54.3458 92.2234 54.2636C92.477 54.0912 92.6824 53.8566 92.8201 53.5819C93.3386 52.7775 93.7092 51.8864 93.9145 50.9507C94.0877 50.0111 93.9817 48.9914 93.4647 48.1888Z" fill="#2F2E41"/>
        <path d="M129.829 67.6393C123.489 72.4571 110.874 70.9351 106.959 79.1877C95.1054 104.174 84.9648 85.1406 74.5865 83.0822L74.491 82.5719C84.8803 83.4364 96.0244 82.095 106.718 78.6924C116.382 75.6178 125.004 71.0439 131.652 65.4706L132 65.9068C131.298 66.4956 130.574 67.0731 129.829 67.6393Z" fill="#3F7742"/>
        <path d="M103.023 133.083C102.872 133.531 16.6566 133.531 16.4937 133.084C16.6445 132.634 102.86 132.634 103.023 133.083Z" fill="#A6A6A6"/>
    </g>
    <defs>
        <clipPath id="clip0_403_92">
            <rect width="132" height="133.419" fill="white"/>
        </clipPath>
    </defs>
</svg>